<svg width="17" height="17" viewBox="0 0 17 17" fill="none" xmlns="http://www.w3.org/2000/svg">
<g opacity="0.5" clip-path="url(#clip0_9_64)">
<path d="M7.4104 0.963379H9.4104V8.96338H7.4104V0.963379ZM11.4104 1.55713L11.4573 1.57275C12.1864 1.87484 12.8531 2.27327 13.4573 2.76807C14.0614 3.26286 14.5823 3.83057 15.0198 4.47119C15.4573 5.11182 15.7984 5.81234 16.0432 6.57275C16.288 7.33317 16.4104 8.13005 16.4104 8.96338C16.4104 10.0675 16.2021 11.1066 15.7854 12.0806C15.3687 13.0545 14.7984 13.9035 14.0745 14.6274C13.3505 15.3514 12.5015 15.9217 11.5276 16.3384C10.5536 16.755 9.51457 16.9634 8.4104 16.9634C7.30623 16.9634 6.26717 16.755 5.29321 16.3384C4.31925 15.9217 3.4703 15.3514 2.74634 14.6274C2.02238 13.9035 1.45207 13.0545 1.0354 12.0806C0.618734 11.1066 0.4104 10.0675 0.4104 8.96338C0.4104 8.13005 0.532796 7.33317 0.777588 6.57275C1.02238 5.81234 1.36353 5.11182 1.80103 4.47119C2.23853 3.83057 2.76457 3.26025 3.37915 2.76025C3.99373 2.26025 4.67082 1.85921 5.4104 1.55713L5.37915 3.7915C4.94165 4.05192 4.538 4.36442 4.16821 4.729C3.79842 5.09359 3.48332 5.49723 3.2229 5.93994C2.96248 6.38265 2.76196 6.85921 2.62134 7.36963C2.48071 7.88005 2.4104 8.4113 2.4104 8.96338C2.4104 9.79671 2.56665 10.578 2.87915 11.3071C3.19165 12.0363 3.62134 12.6717 4.16821 13.2134C4.71509 13.755 5.3505 14.1821 6.07446 14.4946C6.79842 14.8071 7.57707 14.9634 8.4104 14.9634C9.24373 14.9634 10.0224 14.8071 10.7463 14.4946C11.4703 14.1821 12.1057 13.755 12.6526 13.2134C13.1995 12.6717 13.6292 12.0363 13.9417 11.3071C14.2542 10.578 14.4104 9.79671 14.4104 8.96338C14.4104 8.4113 14.3401 7.88005 14.1995 7.36963C14.0588 6.85921 13.8557 6.38265 13.5901 5.93994C13.3245 5.49723 13.0068 5.09098 12.637 4.72119C12.2672 4.3514 11.8583 4.0363 11.4104 3.77588V1.55713Z" fill="white"/>
</g>
<defs>
<clipPath id="clip0_9_64">
<rect width="16" height="16" fill="white" transform="translate(0.4104 0.963379)"/>
</clipPath>
</defs>
</svg>
