<svg width="17" height="17" viewBox="0 0 17 17" fill="none" xmlns="http://www.w3.org/2000/svg">
<path opacity="0.5" fill-rule="evenodd" clip-rule="evenodd" d="M8.4104 0.436096C3.99212 0.436096 0.4104 4.01782 0.4104 8.4361C0.4104 12.8544 3.99212 16.4361 8.4104 16.4361C12.8287 16.4361 16.4104 12.8544 16.4104 8.4361C16.4104 4.01782 12.8287 0.436096 8.4104 0.436096ZM9.27915 13.7554V11.5414C9.27915 11.3134 9.16515 11.1994 8.93715 11.1994H7.33515C7.09515 11.1994 6.97515 11.3194 6.97515 11.5594V13.7374C6.97515 14.0014 7.09515 14.1334 7.33515 14.1334H8.93715C9.16515 14.1334 9.27915 14.0074 9.27915 13.7554ZM9.26115 9.65142V9.18342C9.26115 8.89542 9.41715 8.60742 9.72915 8.31942L10.9531 7.32942C11.4931 6.86142 11.7631 6.33342 11.7631 5.74542V5.49342C11.7631 4.55742 11.5051 3.83742 10.9891 3.33342C10.4731 2.82942 9.74115 2.57742 8.79315 2.57742H7.73115C6.78315 2.57742 6.05115 2.82942 5.53515 3.33342C5.01915 3.83742 4.76115 4.55742 4.76115 5.49342V5.90742C4.76115 6.17142 4.88715 6.30342 5.13915 6.30342H6.66915C6.92115 6.30342 7.04715 6.17142 7.04715 5.90742V5.52942C7.04715 5.14542 7.12515 4.87542 7.28115 4.71942C7.44915 4.56342 7.71915 4.48542 8.09115 4.48542H8.41515C8.81115 4.48542 9.09315 4.56942 9.26115 4.73742C9.44115 4.89342 9.53115 5.15742 9.53115 5.52942V5.63742C9.53115 5.99742 9.33915 6.32742 8.95515 6.62742L7.94715 7.45542C7.63515 7.70742 7.41315 7.95942 7.28115 8.21142C7.14915 8.45142 7.08315 8.76942 7.08315 9.16542V9.65142C7.08315 9.90342 7.20915 10.0294 7.46115 10.0294H8.88315C9.13515 10.0294 9.26115 9.90342 9.26115 9.65142Z" fill="white"/>
</svg>
